<mxfile host="Electron" agent="Mozilla/5.0 (Windows NT 10.0; Win64; x64) AppleWebKit/537.36 (KHTML, like Gecko) draw.io/26.2.15 Chrome/134.0.6998.205 Electron/35.2.1 Safari/537.36" version="26.2.15">
  <diagram name="Page-1" id="1BswyRvQR84RQPMo98io">
    <mxGraphModel dx="933" dy="559" grid="1" gridSize="10" guides="1" tooltips="1" connect="1" arrows="1" fold="1" page="1" pageScale="1" pageWidth="850" pageHeight="1100" math="0" shadow="0">
      <root>
        <mxCell id="0" />
        <mxCell id="1" parent="0" />
        <mxCell id="nUnMiOmM3zb2ol2lqZys-2" value="" style="rounded=0;whiteSpace=wrap;html=1;" vertex="1" parent="1">
          <mxGeometry x="190" y="80" width="500" height="300" as="geometry" />
        </mxCell>
        <mxCell id="nUnMiOmM3zb2ol2lqZys-3" value="Doctor or Patient login page" style="text;html=1;align=center;verticalAlign=middle;whiteSpace=wrap;rounded=0;" vertex="1" parent="1">
          <mxGeometry x="190" y="390" width="502" height="30" as="geometry" />
        </mxCell>
        <mxCell id="nUnMiOmM3zb2ol2lqZys-5" value="" style="rounded=1;whiteSpace=wrap;html=1;fillColor=#d5e8d4;gradientColor=#00CC00;strokeColor=#82b366;" vertex="1" parent="1">
          <mxGeometry x="295" y="110" width="290" height="30" as="geometry" />
        </mxCell>
        <mxCell id="nUnMiOmM3zb2ol2lqZys-6" value="Welcome to E-MED" style="text;html=1;align=center;verticalAlign=middle;whiteSpace=wrap;rounded=0;fillColor=none;fontColor=#ffffff;strokeColor=#2D7600;" vertex="1" parent="1">
          <mxGeometry x="300" y="110" width="280" height="30" as="geometry" />
        </mxCell>
        <mxCell id="nUnMiOmM3zb2ol2lqZys-7" value="" style="rounded=1;whiteSpace=wrap;html=1;fillColor=#0050ef;fontColor=#ffffff;strokeColor=#001DBC;" vertex="1" parent="1">
          <mxGeometry x="276" y="270" width="330" height="40" as="geometry" />
        </mxCell>
        <mxCell id="nUnMiOmM3zb2ol2lqZys-8" value="" style="rounded=1;whiteSpace=wrap;html=1;fillColor=#0050ef;fontColor=#ffffff;strokeColor=#001DBC;" vertex="1" parent="1">
          <mxGeometry x="275" y="190" width="330" height="40" as="geometry" />
        </mxCell>
        <mxCell id="nUnMiOmM3zb2ol2lqZys-9" value="email" style="text;html=1;align=center;verticalAlign=middle;whiteSpace=wrap;rounded=0;" vertex="1" parent="1">
          <mxGeometry x="276" y="160" width="94" height="30" as="geometry" />
        </mxCell>
        <mxCell id="nUnMiOmM3zb2ol2lqZys-10" value="password" style="text;html=1;align=center;verticalAlign=middle;whiteSpace=wrap;rounded=0;" vertex="1" parent="1">
          <mxGeometry x="276" y="240" width="94" height="30" as="geometry" />
        </mxCell>
        <mxCell id="nUnMiOmM3zb2ol2lqZys-11" value="" style="rounded=1;whiteSpace=wrap;html=1;fillColor=#d5e8d4;gradientColor=#97d077;strokeColor=#82b366;" vertex="1" parent="1">
          <mxGeometry x="275" y="330" width="75" height="30" as="geometry" />
        </mxCell>
        <mxCell id="nUnMiOmM3zb2ol2lqZys-12" value="login" style="text;html=1;align=center;verticalAlign=middle;whiteSpace=wrap;rounded=0;fontColor=light-dark(#000000,#000000);" vertex="1" parent="1">
          <mxGeometry x="282.5" y="330" width="60" height="30" as="geometry" />
        </mxCell>
        <mxCell id="nUnMiOmM3zb2ol2lqZys-13" value="don&#39;t have an account ? click here for register" style="text;html=1;align=center;verticalAlign=middle;whiteSpace=wrap;rounded=0;" vertex="1" parent="1">
          <mxGeometry x="360" y="330" width="250" height="30" as="geometry" />
        </mxCell>
        <mxCell id="nUnMiOmM3zb2ol2lqZys-14" value="" style="ellipse;whiteSpace=wrap;html=1;aspect=fixed;fillColor=#e6d0de;gradientColor=#d5739d;strokeColor=#996185;" vertex="1" parent="1">
          <mxGeometry x="210" y="100" width="40" height="40" as="geometry" />
        </mxCell>
        <mxCell id="nUnMiOmM3zb2ol2lqZys-15" value="img" style="text;html=1;align=center;verticalAlign=middle;whiteSpace=wrap;rounded=0;" vertex="1" parent="1">
          <mxGeometry x="200" y="105" width="60" height="30" as="geometry" />
        </mxCell>
      </root>
    </mxGraphModel>
  </diagram>
</mxfile>
